<svg viewBox="0 0 330 200" xmlns="http://www.w3.org/2000/svg"><g><g><g><g><g><line x1="50" y1="177" x2="45" y2="177" style="visibility: inherit;" fill="rgb(0, 0, 0)" stroke="rgb(204, 204, 204)" stroke-width="1px"></line><line x1="50" y1="157.33333333333334" x2="45" y2="157.33333333333334" style="visibility: inherit;" fill="rgb(0, 0, 0)" stroke="rgb(204, 204, 204)" stroke-width="1px"></line><line x1="50" y1="137.66666666666669" x2="45" y2="137.66666666666669" style="visibility: inherit;" fill="rgb(0, 0, 0)" stroke="rgb(204, 204, 204)" stroke-width="1px"></line><line x1="50" y1="118.00000000000001" x2="45" y2="118.00000000000001" style="visibility: inherit;" fill="rgb(0, 0, 0)" stroke="rgb(204, 204, 204)" stroke-width="1px"></line><line x1="50" y1="98.33333333333331" x2="45" y2="98.33333333333331" style="visibility: inherit;" fill="rgb(0, 0, 0)" stroke="rgb(204, 204, 204)" stroke-width="1px"></line><line x1="50" y1="78.66666666666669" x2="45" y2="78.66666666666669" style="visibility: inherit;" fill="rgb(0, 0, 0)" stroke="rgb(204, 204, 204)" stroke-width="1px"></line><line x1="50" y1="59.00000000000001" x2="45" y2="59.00000000000001" style="visibility: inherit;" fill="rgb(0, 0, 0)" stroke="rgb(204, 204, 204)" stroke-width="1px"></line><line x1="50" y1="39.333333333333314" x2="45" y2="39.333333333333314" style="visibility: inherit;" fill="rgb(0, 0, 0)" stroke="rgb(204, 204, 204)" stroke-width="1px"></line><line x1="50" y1="19.666666666666675" x2="45" y2="19.666666666666675" style="visibility: inherit;" fill="rgb(0, 0, 0)" stroke="rgb(204, 204, 204)" stroke-width="1px"></line><line x1="50" y1="0" x2="45" y2="0" style="visibility: inherit;" fill="rgb(0, 0, 0)" stroke="rgb(204, 204, 204)" stroke-width="1px"></line></g><g transform="translate(40, 0)"><text x="0" y="177" dx="0em" dy="0.3em" style="text-anchor: end; visibility: hidden; font-family: Roboto, sans-serif; font-size: 12px; font-weight: 200;" fill="rgb(33, 33, 33)" stroke="none" stroke-width="1px">0.2</text><text x="0" y="157.33333333333334" dx="0em" dy="0.3em" style="text-anchor: end; visibility: inherit; font-family: Roboto, sans-serif; font-size: 12px; font-weight: 200;" fill="rgb(33, 33, 33)" stroke="none" stroke-width="1px">0.22</text><text x="0" y="137.66666666666669" dx="0em" dy="0.3em" style="text-anchor: end; visibility: hidden; font-family: Roboto, sans-serif; font-size: 12px; font-weight: 200;" fill="rgb(33, 33, 33)" stroke="none" stroke-width="1px">0.24</text><text x="0" y="118.00000000000001" dx="0em" dy="0.3em" style="text-anchor: end; visibility: inherit; font-family: Roboto, sans-serif; font-size: 12px; font-weight: 200;" fill="rgb(33, 33, 33)" stroke="none" stroke-width="1px">0.26</text><text x="0" y="98.33333333333331" dx="0em" dy="0.3em" style="text-anchor: end; visibility: hidden; font-family: Roboto, sans-serif; font-size: 12px; font-weight: 200;" fill="rgb(33, 33, 33)" stroke="none" stroke-width="1px">0.28</text><text x="0" y="78.66666666666669" dx="0em" dy="0.3em" style="text-anchor: end; visibility: inherit; font-family: Roboto, sans-serif; font-size: 12px; font-weight: 200;" fill="rgb(33, 33, 33)" stroke="none" stroke-width="1px">0.3</text><text x="0" y="59.00000000000001" dx="0em" dy="0.3em" style="text-anchor: end; visibility: hidden; font-family: Roboto, sans-serif; font-size: 12px; font-weight: 200;" fill="rgb(33, 33, 33)" stroke="none" stroke-width="1px">0.32</text><text x="0" y="39.333333333333314" dx="0em" dy="0.3em" style="text-anchor: end; visibility: inherit; font-family: Roboto, sans-serif; font-size: 12px; font-weight: 200;" fill="rgb(33, 33, 33)" stroke="none" stroke-width="1px">0.34</text><text x="0" y="19.666666666666675" dx="0em" dy="0.3em" style="text-anchor: end; visibility: hidden; font-family: Roboto, sans-serif; font-size: 12px; font-weight: 200;" fill="rgb(33, 33, 33)" stroke="none" stroke-width="1px">0.36</text><text x="0" y="0" dx="0em" dy="0.3em" style="text-anchor: end; visibility: hidden; font-family: Roboto, sans-serif; font-size: 12px; font-weight: 200;" fill="rgb(33, 33, 33)" stroke="none" stroke-width="1px">0.38</text></g><line x1="50" y1="0" x2="50" y2="177" fill="rgb(0, 0, 0)" stroke="rgb(204, 204, 204)" stroke-width="1px"></line></g></g><g transform="translate(50, 0)" clip-path="url(#clip_0)"><clipPath id="clip_0"><rect width="280" height="177"></rect></clipPath><g><g><g><line x1="0" y1="0" x2="0" y2="177" fill="rgb(0, 0, 0)" stroke="rgb(66, 66, 66)" stroke-width="1px" opacity="0.25"></line><line x1="21.53846153846154" y1="0" x2="21.53846153846154" y2="177" fill="rgb(0, 0, 0)" stroke="rgb(66, 66, 66)" stroke-width="1px" opacity="0.25"></line><line x1="43.07692307692308" y1="0" x2="43.07692307692308" y2="177" fill="rgb(0, 0, 0)" stroke="rgb(66, 66, 66)" stroke-width="1px" opacity="0.25"></line><line x1="64.61538461538461" y1="0" x2="64.61538461538461" y2="177" fill="rgb(0, 0, 0)" stroke="rgb(66, 66, 66)" stroke-width="1px" opacity="0.25"></line><line x1="86.15384615384616" y1="0" x2="86.15384615384616" y2="177" fill="rgb(0, 0, 0)" stroke="rgb(66, 66, 66)" stroke-width="1px" opacity="0.25"></line><line x1="107.6923076923077" y1="0" x2="107.6923076923077" y2="177" fill="rgb(0, 0, 0)" stroke="rgb(66, 66, 66)" stroke-width="1px" opacity="0.25"></line><line x1="129.23076923076923" y1="0" x2="129.23076923076923" y2="177" fill="rgb(0, 0, 0)" stroke="rgb(66, 66, 66)" stroke-width="1px" opacity="0.25"></line><line x1="150.76923076923077" y1="0" x2="150.76923076923077" y2="177" fill="rgb(0, 0, 0)" stroke="rgb(66, 66, 66)" stroke-width="1px" opacity="0.25"></line><line x1="172.30769230769232" y1="0" x2="172.30769230769232" y2="177" fill="rgb(0, 0, 0)" stroke="rgb(66, 66, 66)" stroke-width="1px" opacity="0.25"></line><line x1="193.84615384615384" y1="0" x2="193.84615384615384" y2="177" fill="rgb(0, 0, 0)" stroke="rgb(66, 66, 66)" stroke-width="1px" opacity="0.25"></line><line x1="215.3846153846154" y1="0" x2="215.3846153846154" y2="177" fill="rgb(0, 0, 0)" stroke="rgb(66, 66, 66)" stroke-width="1px" opacity="0.25"></line><line x1="236.92307692307693" y1="0" x2="236.92307692307693" y2="177" fill="rgb(0, 0, 0)" stroke="rgb(66, 66, 66)" stroke-width="1px" opacity="0.25"></line><line x1="258.46153846153845" y1="0" x2="258.46153846153845" y2="177" fill="rgb(0, 0, 0)" stroke="rgb(66, 66, 66)" stroke-width="1px" opacity="0.25"></line><line x1="280" y1="0" x2="280" y2="177" fill="rgb(0, 0, 0)" stroke="rgb(66, 66, 66)" stroke-width="1px" opacity="0.25"></line></g><g><line x1="0" y1="177" x2="280" y2="177" fill="rgb(0, 0, 0)" stroke="rgb(66, 66, 66)" stroke-width="1px" opacity="0.25"></line><line x1="0" y1="157.33333333333334" x2="280" y2="157.33333333333334" fill="rgb(0, 0, 0)" stroke="rgb(66, 66, 66)" stroke-width="1px" opacity="0.25"></line><line x1="0" y1="137.66666666666669" x2="280" y2="137.66666666666669" fill="rgb(0, 0, 0)" stroke="rgb(66, 66, 66)" stroke-width="1px" opacity="0.25"></line><line x1="0" y1="118.00000000000001" x2="280" y2="118.00000000000001" fill="rgb(0, 0, 0)" stroke="rgb(66, 66, 66)" stroke-width="1px" opacity="0.25"></line><line x1="0" y1="98.33333333333331" x2="280" y2="98.33333333333331" fill="rgb(0, 0, 0)" stroke="rgb(66, 66, 66)" stroke-width="1px" opacity="0.25"></line><line x1="0" y1="78.66666666666669" x2="280" y2="78.66666666666669" fill="rgb(0, 0, 0)" stroke="rgb(66, 66, 66)" stroke-width="1px" opacity="0.25"></line><line x1="0" y1="59.00000000000001" x2="280" y2="59.00000000000001" fill="rgb(0, 0, 0)" stroke="rgb(66, 66, 66)" stroke-width="1px" opacity="0.25"></line><line x1="0" y1="39.333333333333314" x2="280" y2="39.333333333333314" fill="rgb(0, 0, 0)" stroke="rgb(66, 66, 66)" stroke-width="1px" opacity="0.25"></line><line x1="0" y1="19.666666666666675" x2="280" y2="19.666666666666675" fill="rgb(0, 0, 0)" stroke="rgb(66, 66, 66)" stroke-width="1px" opacity="0.25"></line><line x1="0" y1="0" x2="280" y2="0" fill="rgb(0, 0, 0)" stroke="rgb(66, 66, 66)" stroke-width="1px" opacity="0.25"></line></g></g></g><g><g><line x1="0" y1="373.6666666666667" x2="280" y2="373.6666666666667" fill="rgb(0, 0, 0)" stroke="rgb(153, 153, 153)" stroke-width="1.5px"></line></g></g><g><g><line x1="21.53846153846154" y1="0" x2="21.53846153846154" y2="177" fill="rgb(0, 0, 0)" stroke="rgb(153, 153, 153)" stroke-width="1.5px"></line></g></g><g><g><g><g><g><path stroke="rgb(238, 51, 119)" stroke-width="2px" d="M30.153846153846157,-11.592004240738444L30.369230769230768,0.1895791656608442L30.692307692307693,-1.467921670461993L31.123076923076923,11.763860698504883L31.230769230769234,18.24750765790807L32.2,12.92037593472068L32.30769230769231,10.016016015888649L32.63076923076923,12.022784151903958L32.95384615384616,9.096312092197874L33.06153846153846,1.6726639142582835L33.276923076923076,15.10256773740074L34.03076923076923,-6.056182020641264L34.56923076923077,-3.295497071921578L35,6.146924003780112L35.107692307692304,20.03549761673324L35.32307692307692,13.610532334021453L35.53846153846153,18.638249793010715L35.64615384615385,16.672937098156616L36.184615384615384,19.410222472558026L36.29230769230769,24.6557779203744L37.04615384615385,28.79765005256236L37.26153846153846,37.99670191215984L37.36923076923077,18.172014154635207L37.69230769230769,5.235304759526606L38.44615384615384,-8.134983694603122L38.769230769230774,-1.0250060925660693L38.98461538461539,13.081505832884119L39.2,20.859708439000585L39.84615384615385,12.240729250920692L39.95384615384616,16.98896487459316L40.06153846153846,15.519758748440617L40.38461538461538,17.298634152071877L40.49230769230769,26.693244246914297L40.599999999999994,43.56577214495795L40.70769230769231,31.607143073656943L40.92307692307693,27.335613053666783L41.03076923076923,19.005924003299373L41.353846153846156,21.270288636471598L41.46153846153846,15.242672815036219L41.569230769230764,19.16963875340111L42,1.3826727949382138L42.10769230769231,6.7452374030829665L42.215384615384615,16.599021418671686L42.53846153846153,30.21047525233877L42.96923076923077,31.219755375147994L43.07692307692308,28.083488490439123L43.292307692307695,30.78411874746681L43.4,21.69250849232317L43.5076923076923,29.724022456081112L43.61538461538461,22.353892438454242L43.830769230769235,26.435425316995076L44.04615384615385,22.081878333711025L44.261538461538464,32.147758620633724L44.47692307692308,29.350002148342575L44.692307692307686,47.291646412169385L44.800000000000004,32.47386087446735L45.12307692307692,28.687126144583964L45.23076923076923,31.83757395634012L45.33846153846154,28.412893885904264L45.44615384615385,34.701746675094185L45.661538461538456,27.670933079354132L45.76923076923077,45.65658415454556L46.2,51.349360106972405L46.84615384615384,60.08724222893768L47.06153846153846,59.080783118696566L47.16923076923077,41.343742054636195L47.276923076923076,40.95255191441474L47.49230769230769,37.10822981585724L47.6,33.647675136663494L47.81538461538461,23.802259147130194L47.92307692307693,42.696693177995705L48.03076923076923,34.89948180276813L48.13846153846154,36.42652560249166L48.676923076923075,33.761957150549904L48.784615384615385,25.35498202354778L48.892307692307696,33.06775475647692L49.323076923076925,29.121391970554836L49.43076923076923,33.962439583921366L49.53846153846154,44.97453743250209L49.753846153846155,41.13687568126739L50.61538461538461,44.1369893623508L50.723076923076924,51.466793056713584L51.04615384615385,63.528844346436074L51.261538461538464,58.211841847399214L51.47692307692308,53.35220484687844L51.69230769230769,50.68215610635652L51.90769230769231,43.08181800476138L52.01538461538462,35.177363630323136L52.23076923076923,33.270501786185406L52.44615384615385,22.783777419952433L52.55384615384615,19.723753800527945L52.76923076923077,31.379084478141834L53.30769230769231,38.77951373874461L53.41538461538462,37.17262755763121L53.52307692307692,36.12699106692225L53.63076923076923,41.631059308999504L54.49230769230769,33.77292490412021L54.707692307692305,51.83792164569632L54.815384615384616,44.946001561356816L55.13846153846154,39.11632840148998L55.56923076923077,29.99005253501177L55.784615384615385,55.84789961608708L55.89230769230769,49.54013326584774L56.215384615384615,45.78214156718734L56.43076923076923,40.09674896453833L56.96923076923077,52.67203226281213L57.07692307692307,52.56697092012373L57.18461538461539,46.861149280602554L57.292307692307695,46.07002748409995L57.83076923076923,51.00663658793818L57.93846153846154,64.37216642389329L58.15384615384616,51.493179942506345L58.47692307692308,55.4384028665251L58.58461538461538,59.15475550604025L58.69230769230769,66.51737557636993L58.8,59.53495709967988L59.23076923076923,53.512603780859976L59.44615384615385,42.498620880385786L59.55384615384615,50.928338177645536L59.66153846153846,37.72721009710091L60.09230769230769,39.01828506743108L60.52307692307692,44.12581241422016L60.63076923076923,52.420174067972816L60.738461538461536,47.25409356698913L60.84615384615385,52.221308684024336L60.95384615384615,46.847438622915604L61.06153846153846,59.15306565527354L61.815384615384616,56.45883801796577L62.138461538461534,53.58096423478048L62.246153846153845,35.59276408392858L63.107692307692304,42.45610313279632L63.53846153846154,61.29502132334235L63.646153846153844,66.81230638105424L63.753846153846155,47.59839190053195L63.86153846153846,45.39945122206555L63.96923076923077,55.120063689973044L64.29230769230769,55.84712307510343L64.83076923076922,60.72769619340242L65.04615384615384,44.02050299633269L65.47692307692307,40.51524502747489L65.58461538461539,51.03199154563685L65.90769230769232,35.96767118629576L66.01538461538462,25.307235791624176L66.12307692307692,18.00439943135215L66.23076923076923,40.527504705948246L66.55384615384615,49.10223434581119L66.87692307692308,52.860494444054886L66.98461538461538,74.934405566821L67.3076923076923,53.808948772094325L67.41538461538461,56.2666029872149L67.84615384615384,55.516219294566845L67.95384615384614,44.21565471281542L68.38461538461539,43.16093019360267L68.49230769230769,55.61355753569189L68.6,50.52743088302047L68.81538461538462,49.8582663879615L68.92307692307693,46.861485692609676L69.03076923076924,40.96192034050784L69.24615384615385,50.778368472844136L69.35384615384615,54.29199725774315L69.46153846153847,46.20362503362133L69.56923076923077,52.11553949733038L70,38.6578460134236L70.1076923076923,46.09146939101828L70.21538461538461,42.420999255079096L70.32307692307693,53.23119651851938L70.43076923076923,48.49994524068362L70.64615384615384,60.94117835211793L70.86153846153846,63.57562575567589L71.07692307692307,54.78495428062777L71.18461538461538,56.758299373173564L71.61538461538461,48.6008479491376L71.72307692307693,54.34874708029645L71.93846153846154,48.329744314589206L72.15384615384615,56.02312508549574L72.58461538461538,49.78429439461003L72.6923076923077,44.65355084814092L73.0153846153846,52.34231663432198L73.12307692307694,39.805378083506085L73.23076923076924,41.87087578224273L73.33846153846154,39.40293179341435L73.55384615384615,30.584226455618666L73.66153846153847,42.88000735819125L73.87692307692308,40.69613151458773L73.98461538461538,36.82841031178559L74.0923076923077,40.33074507966477L74.2,39.78588389071723L74.41538461538461,63.11876329608497L74.73846153846154,46.216960355606105L75.16923076923078,49.11558871565248L75.49230769230769,52.52529140173184L75.60000000000001,65.30838630909994L75.70769230769231,56.00481671282811L76.03076923076924,59.18137365692358L76.35384615384615,70.01793671914045L76.46153846153845,56.673254990188894L76.56923076923077,63.208479227786434L76.67692307692307,76.55359686742139L76.78461538461538,74.6087143579915L76.89230769230768,84.15047931034138L77.21538461538461,65.67054046407601L77.32307692307693,57.74003466694713L77.43076923076923,52.759254666542L77.53846153846155,58.95844926776988L77.86153846153846,64.64888599520427L78.61538461538461,62.71773315472702L78.93846153846154,61.14766092103699L79.04615384615384,55.69418195288565L79.26153846153845,53.08925452670166L79.36923076923078,63.300392374440264L79.47692307692309,60.92945426208433L79.58461538461539,63.716139222200646L79.6923076923077,66.77411832711057L79.90769230769232,63.41848246038529L80.01538461538462,56.70076401897614L80.12307692307692,51.312063772688404L80.33846153846154,40.64703292799593L80.44615384615385,44.46217073094407L80.76923076923076,55.94157696420885L80.98461538461538,45.81897458625798L81.30769230769232,52.20622012531536L81.41538461538462,49.84432123610845L82.06153846153846,58.70556440259702L82.16923076923077,60.42624148312621L82.27692307692308,52.250963532428386L82.70769230769231,52.95931114564365L83.03076923076922,45.9473512280585L83.24615384615385,59.05924398751665L83.56923076923077,58.081416927088995L84,60.69045133728364L84.43076923076923,46.39705528023983L84.53846153846153,49.70293317558256L84.64615384615385,55.25759551319611L84.86153846153846,58.47416683868448L85.07692307692307,65.23900894027479L85.18461538461538,56.16603205026108L85.29230769230769,62.097139104729415L85.50769230769231,53.30352093251077L85.72307692307693,47.07559736652092L85.83076923076923,47.40379019627719L85.93846153846154,57.63115115195366L86.04615384615384,71.35468647020967L86.26153846153846,77.16074351353194L86.36923076923077,74.43899539241836L86.47692307692307,53.26532448408795L86.6923076923077,53.24652715371722L87.0153846153846,58.99083677041539L87.23076923076923,63.37392455999858L87.55384615384617,60.44547463257002L87.66153846153847,55.14145207086535L87.87692307692308,52.07814828363655L88.0923076923077,52.431475940193366L88.3076923076923,48.180660785940724L88.52307692307693,56.41931593122526L88.63076923076923,37.48556999982861L88.95384615384616,35.65268403264757L89.16923076923077,48.11410328133628L89.27692307692307,47.11246471633746L89.70769230769231,59.95800055482133L90.13846153846154,43.70128674557692L90.46153846153847,49.27043881764542L90.56923076923077,60.14865486671845L90.67692307692307,74.19443287561526L90.78461538461538,51.33245650595541L90.8923076923077,53.232620825366844L91,67.18069244424305L91.43076923076923,62.80985619823017L91.64615384615385,67.427506412267L91.75384615384615,71.15819544307348L91.86153846153847,68.61286544032073L91.96923076923078,69.60263310607577L92.07692307692308,83.85696713171183L92.4,67.6951091609902L92.61538461538461,62.78961514964736L93.36923076923077,66.71827493231517L93.69230769230768,70.89611156456286L94.23076923076924,87.5846338967837L94.33846153846154,88.06919003528499L94.44615384615385,70.79560216070495L94.76923076923077,73.8603381542441L94.98461538461538,63.01497020491425L95.09230769230768,50.10014660856202L95.2,60.79264423669024L95.52307692307691,36.48617360643931L96.06153846153846,48.826580693239286L96.27692307692308,52.869576173969676L96.49230769230769,54.80817344066414L96.6,68.43077898587931L96.81538461538462,68.2826372498243L97.13846153846154,55.16225937886852L97.24615384615385,73.32295075188371L97.46153846153845,60.67431853093876L97.8923076923077,57.905725641319236L98,67.36655562118837L98.21538461538462,61.974228284733414L98.53846153846155,57.329688872085114L98.75384615384615,47.006334196638754L99.07692307692308,52.867104894585445L99.18461538461538,55.67958778142947L99.39999999999999,66.99706737597792L99.61538461538461,69.30438184181854L99.72307692307692,73.1676506088575L99.93846153846152,65.81696203667325L100.04615384615386,62.1643335381254L100.26153846153846,54.2497562701963L100.36923076923077,47.685655880101265L100.47692307692309,60.438162927703736L101.01538461538462,71.6323059746882L101.44615384615385,69.81580496326649L101.55384615384615,55.77993703978595L101.66153846153846,61.36292593338492L102.84615384615385,55.958029576093345L102.95384615384616,52.97587658640766L103.16923076923077,47.17252409663018L103.7076923076923,72.6673205944273L103.81538461538462,78.85748972807563L103.92307692307693,64.88173610954026L104.24615384615385,45.40278328451636L104.35384615384616,57.726124888617576L104.67692307692307,65.54332640526223L105,64.5282070721638L105.1076923076923,75.75461918227582L105.32307692307693,54.1365669296943L105.43076923076923,64.87538641254679L105.53846153846153,68.29656565324808L105.64615384615384,73.3721241482279L105.75384615384615,66.63699090052732L106.4,66.16069309454612L106.72307692307693,66.24868997260803L106.93846153846154,65.51401100352331L107.15384615384615,69.34488413609019L107.58461538461538,71.04166992034685L108.12307692307694,77.0811181993852L108.23076923076924,80.71673213630339L108.33846153846154,80.95759976221773L108.44615384615385,86.16437262086262L108.76923076923077,75.19201255115784L109.63076923076923,74.04319423997156L109.73846153846154,73.86767760851238L109.95384615384614,70.54718977573468L110.16923076923078,73.82058895247948L110.49230769230769,75.50214575499953L110.60000000000001,73.02599724990523L110.70769230769231,65.5666277301057L111.13846153846154,52.6488665913588L111.24615384615385,48.02395874113123L111.46153846153845,61.57626343876291L111.56923076923077,81.18248332208493L111.67692307692307,76.22296490271546L111.89230769230768,87.8840380469938L112,71.03352914412694L112.32307692307693,56.56539649661314L112.53846153846155,77.3964220219608L113.07692307692308,68.63935681584015L113.18461538461538,67.77294222753764L113.50769230769231,61.22866745139075L113.83076923076922,52.14808855461032L114.15384615384615,58.26031479442288L114.36923076923078,63.65519321682552L114.6923076923077,79.87017137640217L114.8,76.32438193261723L115.23076923076923,83.57490498920343L115.33846153846154,69.1567060178522L116.73846153846154,75.63495208577335L116.84615384615385,68.32368424190689L116.95384615384616,67.5521465062317L117.16923076923077,64.16195611472232L117.38461538461539,75.96462962020615L117.6,80.27942008767039L117.92307692307692,77.24946980671191L118.13846153846153,76.223243631896L118.24615384615385,78.38659475523822L118.56923076923077,63.920023868155056L118.67692307692309,80.68082668960388L118.8923076923077,70.86814693558391L119.21538461538462,70.39207915434145L119.32307692307693,72.26953296642839L119.53846153846153,78.06594910292633L119.64615384615385,69.96167971731505L119.96923076923076,76.95903095826277L120.39999999999999,71.0749731136845L120.50769230769231,72.02495696982659L120.72307692307693,82.2026297102824L120.93846153846154,66.20692527992263L121.36923076923077,57.2093534352545L121.47692307692307,60.20543948901679L121.6923076923077,63.79101509308609L121.8,66.23526423646489L121.9076923076923,64.71294556542321L122.0153846153846,72.94343437244943L122.23076923076923,68.13205365433566L122.66153846153847,62.70972668386069L122.87692307692308,64.5670542752141L122.9846153846154,59.1474587382115L123.3076923076923,71.2226797815901L123.73846153846154,53.172352580829994L124.06153846153846,65.68969516869657L124.38461538461537,62.04329993476236L124.49230769230769,51.090269967812894L124.92307692307693,71.89812729650654L125.13846153846154,60.14654547707587L125.24615384615385,53.82792031011788L125.46153846153847,64.3162704899419L125.67692307692307,68.5362715837067L125.78461538461538,75.10970438222321L126.1076923076923,65.99434884011885L126.64615384615385,60.11781088284733L126.86153846153847,61.70639816784117L126.96923076923078,66.83313929158399L127.18461538461538,60.06730277012553L127.29230769230769,54.851401209855666L127.72307692307692,61.02769484521426L128.15384615384616,56.31021613916639L128.36923076923077,71.6223323526435L128.58461538461538,73.84562625383057L128.69230769230768,66.31627111769549L128.8,64.96230489295819L129.01538461538462,84.28542777468024L129.12307692307692,70.26607501051377L129.44615384615383,66.57774342422616L129.55384615384614,71.43579130167721L129.66153846153844,73.56544049259998L129.87692307692308,79.29247911578602L130.41538461538462,81.73623826388231L130.63076923076923,81.4281441427293L130.84615384615384,78.20859725020465L130.95384615384614,78.47727550710522L131.06153846153845,59.19792152431777L131.6,57.9861053525637L132.03076923076924,61.69860562677566L132.24615384615385,63.597847713999215L132.35384615384615,69.75588610210357L133,78.6065987255474L133.1076923076923,58.011611082532L133.2153846153846,59.620022729065816L133.3230769230769,65.27219838004915L133.43076923076922,69.52105645796627L133.86153846153846,63.246156965460216L134.0769230769231,56.37937009817317L134.1846153846154,66.10333006671642L134.83076923076922,67.8481189157063L134.93846153846152,71.68862636161808L135.26153846153846,60.94141640229798L135.47692307692307,64.90434459426268L135.58461538461538,61.333741145799145L135.69230769230768,79.11211840955592L135.9076923076923,66.58453429131609L136.23076923076923,65.25520840717697L136.33846153846153,81.37703502635169L136.44615384615386,87.42145088787878L136.66153846153847,69.53342856253789L136.76923076923077,65.14498819481692L136.87692307692308,65.28504417879203L136.98461538461538,74.13852577135657L137.09230769230768,85.67027477061173L137.2,80.91001595438769L137.52307692307693,86.53848151394479L137.63076923076923,75.92269139306994L137.84615384615387,91.91717766613117L137.95384615384617,88.04940369262506L138.06153846153848,82.47919182698456L138.3846153846154,71.44620407851852L138.4923076923077,80.78040105441602L138.6,79.35336194638053L139.03076923076924,86.16680528841599L139.7846153846154,87.21856320374519L140,78.7707495240767L140.2153846153846,77.02357167095339L140.32307692307694,75.35743221893146L140.43076923076922,77.36452829790657L140.75384615384615,86.26274124753007L140.9692307692308,83.32300804439106L141.1846153846154,84.3232739193216L141.29230769230767,83.17364194132736L141.5076923076923,83.77801052414092L142.04615384615386,83.35031779418019L142.26153846153846,86.62672873224591L142.36923076923077,88.16126694611174L142.69230769230768,86.48254647849875L142.8,73.64994678695327L143.01538461538462,82.96838149507442L143.12307692307692,69.23123911865314L143.23076923076923,66.16525171507055L143.33846153846153,69.82420185988342L143.44615384615386,74.21805589071035L143.66153846153847,83.8620095054574L143.76923076923075,82.56766399146714L143.87692307692308,66.96827559710499L144.20000000000002,55.9872565490462L144.52307692307693,73.95254389181483L144.84615384615387,85.87135313193845L144.95384615384614,77.6558046712926L145.16923076923075,90.19222477919564L145.3846153846154,90.85091233956842L145.4923076923077,77.91767236813719L145.6,80.47582585746935L145.7076923076923,77.28020525257722L146.46153846153848,69.52440375654463L146.6769230769231,62.07242398998281L146.8923076923077,76.28031991446701L147.1076923076923,64.74130672529152L147.2153846153846,72.07687499313442L147.86153846153846,66.72998378786778L147.96923076923076,78.11235383021832L148.1846153846154,71.9099899701357L148.2923076923077,75.46876681081933L148.4,67.35188480356824L148.83076923076922,71.72099608663419L149.04615384615383,85.2796239047271L149.26153846153846,89.12680271401136L149.47692307692307,78.00252877355096L149.58461538461538,66.10811824012087L149.69230769230768,63.453590208738724L150.01538461538462,72.6818318055767L150.12307692307695,76.99776409189097L150.23076923076923,66.88681999516604L150.44615384615383,50.744173572493345L150.55384615384617,61.87647548876177L150.87692307692308,69.66302284933309L150.98461538461538,74.01355070275373L151.3076923076923,66.89263250670216L151.41538461538462,63.44397970581878L151.52307692307693,69.76546678867832L151.73846153846154,75.40183473781877L152.16923076923075,70.83984051439846L152.27692307692308,63.868146433196564L152.38461538461536,50.83570109233987L152.7076923076923,60.5312165087008L153.24615384615385,64.92060370835924L153.46153846153848,48.36145994420802L153.8923076923077,64.6776171844559L154.2153846153846,83.88000610200706L154.3230769230769,79.6821174863665L154.86153846153846,73.29030708334976L155.0769230769231,73.32875524279754L155.18461538461537,80.8675544002689L155.2923076923077,62.965519309383886L155.4,68.91018980364542L155.5076923076923,68.04280607871534L155.6153846153846,76.28705289148687L155.72307692307692,63.19947521398504L156.04615384615383,68.36594896620538L156.15384615384616,62.955399980779674L156.26153846153844,63.477831548831595L156.36923076923077,61.41958690467383L156.58461538461538,59.63874680667861L156.8,63.51309222501363L156.90769230769232,65.49948921117291L157.23076923076923,71.26823177921635L157.33846153846156,77.94503028584238L157.98461538461538,60.97452384268873L158.41538461538462,64.82921197038276L158.95384615384617,64.0980855744365L159.06153846153845,65.16009177295068L159.16923076923078,65.46818169073877L159.6,66.58099214305454L159.9230769230769,62.18813757938134L160.46153846153845,71.0710210532466L160.7846153846154,60.232982897590745L161.1076923076923,67.22383758058025L161.3230769230769,72.10140571174945L161.43076923076924,75.82345342543476L161.75384615384615,68.42276523852404L162.18461538461537,76.13255491859154L162.61538461538464,77.12013637427353L163.15384615384616,68.10748793723502L163.6923076923077,57.600791847958035L163.90769230769232,73.70689674789939L164.01538461538462,74.95648331985016L164.23076923076923,78.10874491261528L164.33846153846153,76.91608423388253L164.55384615384617,67.64223954516406L165.30769230769232,72.86518968803337L166.27692307692305,78.15649790960144L166.3846153846154,80.84323881902851L166.6,82.31561279399332L166.7076923076923,81.15508761467422L167.03076923076924,63.44422432459526L167.13846153846154,56.724942211372465L167.35384615384618,61.044231234428956L167.7846153846154,67.68932242697734L168,85.61662543320409L168.43076923076924,87.95847370130075L168.53846153846152,79.57958592118175L168.64615384615385,64.80799492880512L168.75384615384613,54.30386716932939L168.86153846153846,61.80877885904443L169.2923076923077,66.07409248562573L169.4,61.594352788598826L169.6153846153846,70.88547298125715L169.72307692307692,73.73304643320414L170.15384615384613,73.68196403634971L170.6923076923077,75.78924141517733L170.79999999999998,76.61197219406436L171.23076923076925,77.95505155393403L171.55384615384614,78.33721028130603L171.98461538461538,88.03348581608941L172.63076923076923,83.80879057616082L174.0307692307692,85.34552002650553L174.13846153846154,78.24414864799614L174.56923076923078,84.63255332085232L175.64615384615385,86.2247597029174L175.75384615384615,82.42166016402031L176.1846153846154,70.21380040189932L176.4,72.57189485117581L176.5076923076923,69.65137231758114L176.6153846153846,63.2105820759786L176.72307692307692,68.19574782359513L177.04615384615386,71.02625249092523L177.26153846153846,57.72959784427132L177.36923076923077,60.612430833332844L177.5846153846154,65.38530795329002L177.8,68.25223439864232L177.90769230769232,65.33914877135703L178.12307692307692,75.65705292121064L178.23076923076923,83.73024758117691L178.33846153846153,80.99955326964832L178.44615384615386,83.13882999410458L178.55384615384614,76.43470466607948L178.66153846153847,77.84132946614903L178.76923076923075,73.48219754547566L178.87692307692308,61.68302963326784L179.09230769230768,71.78177824507401L179.84615384615387,57.111300660512285L180.16923076923075,70.78338629802553L180.27692307692308,68.32239398241329L180.4923076923077,73.07811866331272L181.0307692307692,74.5003491925886L181.13846153846154,87.4587125631784L181.24615384615387,79.40590750292625L181.6769230769231,78.30426684488269L181.8923076923077,87.68138233504342L182,88.0573979517717L182.32307692307694,75.78036365713076L182.43076923076922,88.02100753270823L182.86153846153846,69.32321518748941L182.96923076923076,73.50645846976802L183.07692307692307,75.50100069157659L183.2923076923077,80.4854535793009L184.04615384615383,83.78713996418772L184.15384615384616,93.77817403798376L184.26153846153846,96.24351902519709L184.47692307692307,95.73410545815061L184.69230769230768,64.2732455910982L184.8,68.05266773989247L185.55384615384617,75.94785521998273L186.09230769230768,72.36519681557577L186.73846153846154,66.64692784435292L187.06153846153848,83.04078264884198L187.16923076923075,80.27256209762122L187.4923076923077,71.1261194573515L188.24615384615385,79.24226123650911L188.56923076923076,87.48158820406621L188.6769230769231,101.86318728885666L188.78461538461536,107.12057066894545L189.2153846153846,79.55204682113907L189.75384615384615,93.17573160665539L189.96923076923076,99.03265356264893L190.0769230769231,105.6097829376204L190.18461538461537,122.67141434557497L190.4,134.72236985568563L190.6153846153846,119.46613953076417L190.72307692307692,113.6565121823308L190.83076923076922,119.84250372332878L190.93846153846155,119.82407971431341L191.26153846153844,125.05496791328702L191.4769230769231,137.24715470865794L191.6923076923077,134.69840709921974L191.8,116.7419769717689L191.90769230769232,112.37630783439292L192.23076923076923,109.6125703270472L192.76923076923077,118.93585757505316L193.3076923076923,111.2837379222597L193.41538461538462,122.13214217695509L193.5230769230769,129.8164396111543L193.95384615384617,119.83402232871701L194.06153846153845,118.56581236052264L194.16923076923078,124.57250285026085L194.9230769230769,127.4248280676801L195.03076923076924,132.89810905968739L195.24615384615385,127.45699249574896L195.35384615384615,120.51853524169935L195.56923076923078,127.86548227780031L196.21538461538464,129.307693473774L196.43076923076924,123.80197905239132L196.64615384615385,127.94338451268274L196.75384615384615,117.42142201130787L197.18461538461537,118.2742532610806L197.61538461538464,111.42431068340414L197.72307692307692,114.27848507515277L197.83076923076925,115.56403031479326L198.15384615384616,117.52841257173425L198.26153846153846,121.14970027080341L198.79999999999998,123.35940968993005L198.90769230769232,125.10804506144542L199.12307692307692,130.55150391659114L199.33846153846153,128.46262830496417L199.44615384615383,122.43485525846829L199.55384615384617,128.38775897185215L199.66153846153844,127.16420550441863L199.87692307692305,127.43282372134601L200.0923076923077,132.9987651251416L200.52307692307693,133.17380980308818L200.73846153846154,129.4478832701204L200.95384615384617,134.54660309271162L201.27692307692305,143.73145916610648L201.3846153846154,135.48384865055297L201.8153846153846,142.65556975958637L202.13846153846154,140.37421639417346L202.35384615384618,143.17926273934881L202.46153846153845,140.05954536314513L202.67692307692306,131.1599466434064L203,130.268352212366L203.1076923076923,118.77975888760284L203.2153846153846,125.37682240632017L203.3230769230769,126.01558983381693L203.86153846153846,132.0801602883504L203.9692307692308,123.53038580517173L204.07692307692307,134.69675345798453L204.2923076923077,132.206449776372L204.5076923076923,129.45389609504585L204.6153846153846,144.22043140114653L204.83076923076925,144.7441060744602L205.04615384615386,138.56494809406271L205.36923076923077,141.87632441451512L205.58461538461538,149.88163891194483L205.6923076923077,127.31832224582566L205.79999999999998,130.13914966457048L205.90769230769232,131.66381870829838L206.55384615384614,127.77756295476618L206.66153846153847,131.29692210678812L206.98461538461538,129.3048603252047L207.09230769230768,131.6207233696465L207.2,139.53377118285204L207.30769230769232,141.79698760455273L207.84615384615387,135.24959832317882L208.70769230769233,134.71454420419883L208.8153846153846,129.8180140260797L209.24615384615385,134.70155409995365L209.46153846153845,134.5226452352026L209.7846153846154,135.3757739306342L209.89230769230767,145.4588949704678L210,129.7183123126335L210.10769230769233,130.04384587375563L210.32307692307694,132.8461292276874L210.43076923076922,135.98198390146663L210.75384615384615,139.11440696800096L211.29230769230767,129.85561633796104L211.4,130.97840632611874L211.6153846153846,147.07202196288722L211.93846153846152,143.83516755601934L212.69230769230768,152.28769865573153L212.8,150.87857903008086L212.90769230769232,140.67345584808442L213.23076923076923,129.27855932739573L213.66153846153847,125.07781405465124L213.76923076923075,141.54113531440288L213.87692307692308,138.60419202842192L214.20000000000002,140.52454644639022L214.3076923076923,146.68325451333558L214.52307692307693,141.42073690088134L214.73846153846154,147.7752376428736L214.95384615384614,133.84224992780838L215.3846153846154,130.41584692272917L215.6,140.42269527836666L215.7076923076923,145.34205687795495L215.8153846153846,133.01912908209016L216.24615384615387,138.75971622736844L216.46153846153848,134.16268926146583L216.8923076923077,133.34833224187068L217.1076923076923,132.14584492188558L217.32307692307694,120.08709361478809L217.43076923076922,133.55971931412887L217.86153846153846,134.11379083193384L218.1846153846154,123.45248940903174L218.2923076923077,135.72211472979126L218.5076923076923,143.80908085976603L218.6153846153846,141.38032687946895L218.83076923076922,129.8752685859486L218.93846153846155,138.20906203635639L219.04615384615383,146.93449230779078L219.26153846153846,146.71604547772134L219.36923076923077,132.52657470230255L219.47692307692307,153.82554331495763L220.12307692307695,150.5362619781955L220.23076923076923,138.15028436727113L220.33846153846156,144.8432315334486L220.44615384615383,132.69565088022594L220.55384615384617,135.2947590577732L220.87692307692308,136.00805943974638L221.09230769230768,141.4504007127014L221.84615384615384,138.49650882240894L222.27692307692308,129.0276160472041L222.38461538461536,139.78756966789996L222.4923076923077,139.74611729741358L222.60000000000002,134.99933730578582L223.03076923076924,136.7376452625761L223.13846153846154,137.95108908857722L223.24615384615385,143.21000305282567L223.35384615384615,162.31036181529856L223.46153846153848,156.01759181388516L223.6769230769231,154.40760318816677L224,151.44255665370412L224.3230769230769,145.5546643660183L224.43076923076922,144.29334289584847L224.64615384615385,148.6123063251632L224.86153846153846,144.91008626730786L225.0769230769231,131.26625113871623L225.6153846153846,137.4781689515924L226.04615384615383,147.3417693140834L226.36923076923077,146.14181202030557L226.8,130.26759244626587L227.01538461538462,131.05615277464685L227.12307692307692,137.66526975656848L227.23076923076923,135.1537883068639L227.55384615384617,135.94776548458245L227.87692307692308,146.8535813024428L228.09230769230768,145.75024478420335L228.73846153846156,149.73484772911502L228.84615384615384,145.9742432622363L228.95384615384617,146.57088789869843L229.27692307692308,154.0006424279779L229.6,161.6866202210448L229.9230769230769,158.29552864164484L230.03076923076924,161.41635300594794L230.35384615384615,162.1859483115567L230.46153846153845,150.75513444300648L230.56923076923078,153.42735441499647L230.6769230769231,151.73486534738757L231,156.49283634812167L231.21538461538464,155.47702097012916L231.53846153846152,154.12777591415832L231.64615384615385,145.84183261793012L231.86153846153846,150.0691122651169L232.18461538461537,150.640462237998L232.61538461538464,159.5948450039253L232.72307692307692,159.97819336675158L232.83076923076925,156.73483032240003L232.93846153846152,164.5487258807035L233.04615384615386,148.69298168670406L233.26153846153846,144.45581809670492L233.36923076923077,159.21426678095716L233.47692307692307,156.76662839886225L233.58461538461538,156.44102890553086L234.23076923076923,144.1988568341455L234.44615384615383,143.307306903743L234.66153846153844,158.2515217968682L234.76923076923077,156.2461801116979L234.87692307692305,156.0778091874907L234.98461538461538,164.67986913485464L235.0923076923077,152.87886158603317L235.30769230769232,158.4544445712043L235.52307692307693,155.75981291763028L235.63076923076923,148.62789849816983L235.95384615384617,154.92705775328017L236.06153846153845,157.96508602913738L236.3846153846154,150.2733831243705L237.13846153846154,144.2881831191177L238.64615384615385,145.60258895926845L238.75384615384613,157.05144370857778L239.1846153846154,150.24009742298068L239.2923076923077,152.9097582655649L239.4,153.7454180255036L239.6153846153846,153.79102362003925L239.72307692307692,150.04046508157455L239.93846153846152,155.82048443844442L240.26153846153846,155.78032650087593L240.36923076923077,143.16081821243557L240.58461538461538,155.29840082319933L240.6923076923077,151.71595735386427L240.79999999999998,157.70432703317454L241.23076923076925,164.91932382556547L241.33846153846153,158.71756528838128L241.55384615384614,151.79796618038606L241.66153846153847,150.89858511972938L241.98461538461538,154.61455993585892L242.09230769230768,135.64305480758213L242.2,146.51514793101865L242.73846153846154,148.17538868981947L242.84615384615387,148.36066430567712L242.95384615384614,150.94141402100925L243.06153846153848,145.11827619625376L244.13846153846154,142.3395326122835L244.24615384615385,150.5943009367701L244.46153846153845,142.1563646541705L244.89230769230767,148.13448823372545L245.32307692307694,156.691173026244L245.43076923076922,143.9959981774967L245.9692307692308,157.05096414897926L246.1846153846154,166.12432741650395L246.29230769230767,160.10540639278366L246.5076923076923,146.26234926531953L246.6153846153846,155.55925034930453L246.72307692307692,150.69528387854587L247.15384615384613,163.03892353099636L247.26153846153846,155.93414972378048L247.36923076923077,150.66726327828505L247.47692307692307,155.04622997179789L247.69230769230768,160.19224021435875L247.8,160.24719561100662L248.01538461538462,156.17239465094008L248.12307692307692,151.91149773861804L248.23076923076923,160.0650138298621L248.33846153846153,170.26721923192045L248.66153846153847,161.70148156070533L248.76923076923075,155.3124298651049L249.20000000000002,148.7437415003198L249.3076923076923,149.60703786290196L249.73846153846154,153.6401189411273L249.84615384615387,148.187289049899L250.06153846153848,148.94137405793396L250.16923076923075,160.26108635330516L250.27692307692308,153.3111934117336L250.4923076923077,163.7604115834947L250.6,167.02417084958844L251.0307692307692,166.5049822969438L251.35384615384615,157.51670896867125L251.46153846153848,159.76854889308933L251.56923076923076,162.89057370056028L251.8923076923077,166.14128152944235L252.32307692307694,160.84905156543408L252.96923076923076,157.4301311595274L253.07692307692307,168.7418882463197L253.5076923076923,174.29505293849033L253.6153846153846,167.4220794634993L254.04615384615383,150.58291051767122L254.15384615384616,157.91562999476105L254.26153846153846,164.65569031152592L254.36923076923077,162.67641409186604L255.12307692307695,149.07694660791606L255.55384615384617,156.37487134040703L255.76923076923077,146.45674611350682L255.87692307692308,153.1384850535042L256.6307692307692,159.7025269146709L256.8461538461538,157.786861976541L257.0615384615385,162.83298695120627L257.2769230769231,162.8749294799571L257.81538461538463,156.75623100133768L258.3538461538462,154.08744571088968L258.5692307692308,159.64580638495616L258.67692307692306,147.43118620686252L258.7846153846154,155.2523572332016L259.1076923076923,149.48603166459114L259.4307692307692,152.66467949540282L259.6461538461538,154.66059387996316L259.75384615384615,153.07549211943856L259.96923076923076,152.97667943377124L260.0769230769231,159.1008945958147L260.18461538461537,159.19719613331534L260.7230769230769,160.96644267283665L260.83076923076925,156.3705939819979L260.9384615384615,163.30638648493493L261.15384615384613,162.19294470204952L261.36923076923074,165.63986887328255L262.0153846153846,165.1053036121076L262.33846153846156,162.13658509657057L262.66153846153844,158.01030679149594L262.9846153846154,146.89118801516193L263.2,151.51907764054474L263.5230769230769,161.36798944181484L264.2769230769231,155.8242969757693L264.59999999999997,155.8902301100717L264.7076923076923,149.70945005662202L264.9230769230769,154.3323169134873" style="fill: none;" fill="none"></path></g></g></g></g><g opacity="0.2"><g><g><g><path stroke="rgb(238, 51, 119)" stroke-width="2px" d="M28,-27.931882222493467L28.107692307692307,12.790001650651307L28.215384615384615,-18.98496526479721L28.323076923076922,6.6103554964065685L28.538461538461537,-54.37800365686415L29.83076923076923,-11.244003752867389L30.046153846153846,0.05571466684341431L30.153846153846157,-7.271979033947004L30.369230769230768,17.861954092979445L30.692307692307693,-3.954172909259783L31.123076923076923,31.611534178257003L31.230769230769234,27.972978075345363L32.2,4.929678360621143L32.30769230769231,5.659476141134906L32.63076923076923,15.032936354478212L32.95384615384616,4.706604003906263L33.06153846153846,-9.462808350721978L33.276923076923076,35.247423470020294L34.03076923076923,-37.794306655724824L34.56923076923077,0.845530351003022L35,20.310555617014575L35.107692307692304,40.86835803588232L35.32307692307692,3.9730844100316474L35.53846153846153,26.179825981458038L35.64615384615385,13.724968055884052L36.184615384615384,23.51615053415299L36.29230769230769,32.52411109209062L37.04615384615385,35.010458250840514L37.26153846153846,51.79527970155081L37.36923076923077,-11.56501748164494L38.66153846153846,-0.41311659415562074L38.769230769230774,5.0068400502204895L38.98461538461539,34.241273721059166L39.2,32.52701234817506L39.84615384615385,-0.687739531199133L39.95384615384616,24.111318310101826L40.06153846153846,13.315949559211743L40.38461538461538,19.966947257518783L40.49230769230769,40.78515938917796L40.599999999999994,68.87456399202347L40.70769230769231,13.669199466705322L40.92307692307693,20.928318023681655L41.03076923076923,6.5113904277483705L41.353846153846156,24.66683558622996L41.46153846153846,6.20124908288321L41.569230769230764,25.060087660948437L42,-25.29777614275614L42.10769230769231,14.789084315299988L42.215384615384615,31.379697442054763L42.53846153846153,50.627656002839416L42.96923076923077,32.73367555936178L43.07692307692308,23.37908816337587L43.292307692307695,34.83506413300833L43.4,8.055093109607704L43.5076923076923,41.77129340171814L43.61538461538461,11.298697412014015L43.830769230769235,32.55772463480632L44.04615384615385,15.55155785878499L44.261538461538464,47.24657905101777L44.47692307692308,25.153367439905796L44.692307692307686,74.20411280790967L44.800000000000004,10.247182567914338L45.12307692307692,23.00702404975891L45.23076923076923,36.56324567397435L45.33846153846154,23.275873780250556L45.44615384615385,44.13502585887909L45.661538461538456,17.124712685743976L45.76923076923077,72.63506076733273L46.2,59.888524035612754L46.84615384615384,73.19406541188559L47.06153846153846,57.571094453334815L47.16923076923077,14.738180458545685L47.276923076923076,40.36576670408249L47.49230769230769,31.3417466680209L47.6,28.456843117872868L47.81538461538461,9.03413516283036L47.92307692307693,71.03834422429402L48.03076923076923,23.203664739926666L48.13846153846154,38.71709130207698L48.676923076923075,29.765104472637177L48.784615384615385,12.74451933304469L48.892307692307696,44.63691385587056L49.323076923076925,23.201847791671767L49.43076923076923,41.2240110039711L49.53846153846154,61.49268420537312L49.753846153846155,35.38038305441539L50.61538461538461,48.637159883976L50.723076923076924,62.461498598257705L51.04615384615385,81.62192128101985L51.261538461538464,50.23633809884389L51.47692307692308,46.062749346097306L51.69230769230769,46.677082995573684L51.90769230769231,31.68131085236868L52.01538461538462,23.32068206866583L52.23076923076923,30.41020901997884L52.44615384615385,7.053690870602937L52.55384615384615,15.133718371391309L52.76923076923077,48.8620804945628L53.30769230769231,49.880157629648856L53.41538461538462,34.762298285961165L53.52307692307692,34.55853633085887L53.63076923076923,49.887161672115326L54.49230769230769,21.985723296801243L54.707692307692305,78.93541675806046L54.815384615384616,34.60812143484752L55.13846153846154,30.371818661689765L55.56923076923077,16.300638735294342L55.784615384615385,94.63467023770015L55.89230769230769,40.0784837404887L56.215384615384615,40.14515401919684L56.43076923076923,31.568660060564678L56.96923076923077,71.5349572102229L57.07692307692307,52.40937890609105L57.18461538461539,38.30241682132085L57.292307692307695,44.88334478934606L57.83076923076923,58.41155024369557L57.93846153846154,84.42046117782594L58.15384615384616,32.17470022042592L58.47692307692308,61.35623725255331L58.58461538461538,64.72928446531296L58.69230769230769,77.56130568186443L58.8,49.06132938464482L59.23076923076923,44.47907380263012L59.44615384615385,25.97764652967453L59.55384615384615,63.572914123535156L59.66153846153846,17.92551797628404L60.09230769230769,40.954897522926345L60.52307692307692,51.78710343440375L60.63076923076923,64.86171654860179L60.738461538461536,39.50497281551362L60.84615384615385,59.672131359577186L60.95384615384615,38.786633531252555L61.06153846153846,77.61150620381039L61.815384615384616,52.417496562004104L62.138461538461534,49.26415356000264L62.246153846153845,8.610463857650757L63.107692307692304,52.75111170609793L63.53846153846154,89.55339860916138L63.646153846153844,75.08823396762212L63.753846153846155,18.777520179748535L63.86153846153846,42.10104020436605L63.96923076923077,69.70098239183426L64.29230769230769,56.937712152798966L64.83076923076922,68.04855587085089L65.04615384615384,18.959713200728093L65.47692307692307,35.25735807418825L65.58461538461539,66.80711132287979L65.90769230769232,13.371190647284193L66.01538461538462,9.316582699616754L66.12307692307692,7.050144890944165L66.23076923076923,74.31216261784236L66.55384615384615,61.964328805605575L66.87692307692308,58.497884591420494L66.98461538461538,108.04527225097021L67.3076923076923,22.12076358000437L67.41538461538461,59.95308430989584L67.84615384615384,54.3906437555949L67.95384615384614,27.26480784018835L68.38461538461539,41.578843414783485L68.49230769230769,74.29249854882558L68.6,42.89824090401333L68.81538461538462,48.85451964537304L68.92307692307693,42.36631464958191L69.03076923076924,32.11257231235505L69.24615384615385,65.50304067134857L69.35384615384615,59.562440435091666L69.46153846153847,34.07106669743855L69.56923076923077,60.98341119289398L70,18.471305787563324L70.1076923076923,57.24190445741018L70.21538461538461,36.91529405117036L70.32307692307693,69.44649241367976L70.43076923076923,41.4030683239301L70.64615384615384,79.60302801926932L70.86153846153846,67.52729686101277L71.07692307692307,41.59894706805548L71.18461538461538,59.71831701199215L71.61538461538461,36.36467081308365L71.72307692307693,62.97059577703477L71.93846153846154,39.301240166028336L72.15384615384615,67.56319624185562L72.58461538461538,40.42604835828146L72.6923076923077,36.95743552843731L73.0153846153846,63.87546531359355L73.12307692307694,20.999970257282264L73.23076923076924,44.96912233034771L73.33846153846154,35.701015810171775L73.55384615384615,17.35616844892502L73.66153846153847,61.323678712050125L73.87692307692308,37.420317749182395L73.98461538461538,31.026828507582362L74.0923076923077,45.584247231483474L74.2,38.968592107296004L74.41538461538461,98.11808240413667L74.73846153846154,20.86425594488779L75.16923076923078,53.46353125572206L75.49230769230769,57.63984543085098L75.60000000000001,84.48302867015202L75.70769230769231,42.049462318420424L76.03076923076924,63.94620907306672L76.35384615384615,86.27278131246568L76.46153846153845,36.65623239676159L76.56923076923077,73.01131558418274L76.67692307692307,96.57127332687378L76.78461538461538,71.69139059384663L76.89230769230768,98.4631267388662L77.21538461538461,37.95063219467799L77.32307692307693,45.84427597125372L77.43076923076923,45.28808466593426L77.53846153846155,68.25724116961162L77.86153846153846,73.18454108635585L78.61538461538461,59.82100389401119L78.93846153846154,58.792552570501975L79.04615384615384,47.513963500658676L79.26153846153845,49.181863387425736L79.36923076923078,78.61709914604823L79.47692307692309,57.373047093550376L79.58461538461539,67.89616666237514L79.6923076923077,71.36108698447546L79.90769230769232,58.3850286602974L80.01538461538462,46.624186356862396L80.12307692307692,43.22901340325673L80.33846153846154,24.649486660957344L80.44615384615385,50.184877435366325L80.76923076923076,73.160686314106L80.98461538461538,30.635071019331622L81.30769230769232,61.787088433901474L81.41538461538462,46.301472902297974L82.06153846153846,71.99742915232977L82.16923076923077,63.00725710391999L82.27692307692308,39.98804660638173L82.70769230769231,54.021832565466575L83.03076923076922,35.429411351680756L83.24615384615385,78.7270831267039L83.56923076923077,56.6146763364474L84,64.60400295257568L84.43076923076923,24.956961194674175L84.53846153846153,54.66175001859666L84.64615384615385,63.58958901961645L84.86153846153846,63.29902382691702L85.07692307692307,75.38627209266026L85.18461538461538,42.556566715240486L85.29230769230769,70.99379968643188L85.50769230769231,40.11309367418289L85.72307692307693,37.73371201753618L85.83076923076923,47.896079440911606L85.93846153846154,72.97219258546829L86.04615384615384,91.9399894475937L86.26153846153846,85.86982907851537L86.36923076923077,70.35637321074805L86.47692307692307,21.504818121592212L86.6923076923077,53.21833115816116L87.0153846153846,67.60730119546255L87.23076923076923,69.94855624437332L87.55384615384617,56.052799741427116L87.66153846153847,47.18541822830837L87.87692307692308,47.48319260279339L88.0923076923077,52.96146742502849L88.3076923076923,41.80443805456163L88.52307692307693,68.77729864915213L88.63076923076923,9.084951102733612L88.95384615384616,32.90335508187613L89.16923076923077,66.80623215436935L89.27692307692307,45.61000686883927L89.70769230769231,79.22630431254706L90.13846153846154,19.316216031710315L90.46153846153847,57.6241669257482L90.56923076923077,76.46597894032797L90.67692307692307,95.26309988896054L90.78461538461538,17.039491951465614L90.8923076923077,56.08286730448406L91,88.10279987255733L91.43076923076923,56.25360182921092L91.64615384615385,74.35398173332214L91.75384615384615,76.75422898928325L91.86153846153847,64.79487043619156L91.96923076923078,71.08728460470836L92.07692307692308,105.23846817016602L92.4,43.452322204907745L92.61538461538461,55.43137413263322L93.36923076923077,72.6112646063169L93.69230769230768,77.16286651293439L94.23076923076924,112.6174173951149L94.33846153846154,88.79602424303691L94.44615384615385,44.885220348835L94.76923076923077,78.45744214455287L94.98461538461538,46.74691828091939L95.09230769230768,30.72791121403377L95.2,76.8313906788826L95.52307692307691,0.026467661062878567L96.06153846153846,67.33719132343928L96.27692307692308,58.93406939506531L96.49230769230769,57.71606934070587L96.6,88.86468730370203L96.81538461538462,68.06042464574179L97.13846153846154,35.481692572434746L97.24615384615385,100.56398781140646L97.46153846153845,41.70137019952138L97.8923076923077,53.75283630688986L98,81.55780059099197L98.21538461538462,53.885737280050925L98.53846153846155,50.36287975311281L98.75384615384615,31.521302183469146L99.07692307692308,61.658260941505446L99.18461538461538,59.8983121116956L99.39999999999999,83.97328676780066L99.61538461538461,72.7653535405795L99.72307692307692,78.96255375941595L99.93846153846152,54.79092917839687L100.04615384615386,56.68539079030355L100.26153846153846,42.37789036830266L100.36923076923077,37.83950529495876L100.47692307692309,79.56692349910738L101.01538461538462,88.42352054516475L101.44615384615385,67.09105344613393L101.55384615384615,34.726135154565185L101.66153846153846,69.73740927378337L102.84615384615385,47.85068504015606L102.95384615384616,48.502647101879134L103.16923076923077,38.46749536196392L103.7076923076923,110.90951534112297L103.81538461538462,88.14274342854819L103.92307692307693,43.91810568173727L104.24615384615385,16.18435404698054L104.35384615384616,76.21113729476929L104.67692307692307,77.2691286802292L105,63.005528072516135L105.1076923076923,92.59423734744391L105.32307692307693,21.70948855082195L105.43076923076923,80.98361563682556L105.53846153846153,73.42833451430003L105.64615384615384,80.98546189069748L105.75384615384615,56.53429102897645L106.4,65.44624638557436L106.72307692307693,66.38068528970084L106.93846153846154,64.41199254989624L107.15384615384615,75.0911938349406L107.58461538461538,73.58684859673183L108.12307692307694,86.14029061794281L108.23076923076924,86.17015304168066L108.33846153846154,81.31890120108923L108.44615384615385,93.97453190883002L108.76923076923077,58.73347244660061L109.63076923076923,72.31996677319209L109.73846153846154,73.60440266132355L109.95384615384614,65.5664580265681L110.16923076923078,78.7306877175967L110.49230769230769,78.02448095877966L110.60000000000001,69.31177449226381L110.70769230769231,54.377573450406395L111.13846153846154,33.27222488323848L111.24615384615385,41.086596965789795L111.46153846153845,81.90472048521042L111.56923076923077,110.59181314706802L111.67692307692307,68.7836872736613L111.89230769230768,105.37564776341121L112,45.75776578982672L112.32307692307693,34.86319752534231L112.53846153846155,108.6429603099823L113.07692307692308,55.503759006659195L113.18461538461538,66.47332034508389L113.50769230769231,51.41225528717042L113.83076923076922,38.5272202094396L114.15384615384615,67.42865415414174L114.36923076923078,71.74751085042955L114.6923076923077,104.19263861576718L114.8,71.0056977669398L115.23076923076923,94.45068957408272L115.33846153846154,47.52940756082536L116.73846153846154,85.35232118765515L116.84615384615385,57.35678247610729L116.95384615384616,66.39483990271887L117.16923076923077,59.076670527458205L117.38461538461539,93.66863987843195L117.6,86.75160578886668L117.92307692307692,72.70454438527426L118.13846153846153,74.68390436967213L118.24615384615385,81.63162144025166L118.56923076923077,42.22016753753026L118.67692307692309,105.82203092177711L118.8923076923077,56.149127304553986L119.21538461538462,69.67797748247783L119.32307692307693,75.08571368455887L119.53846153846153,86.76057330767314L119.64615384615385,57.805275638898216L119.96923076923076,87.45505781968436L120.39999999999999,62.24888634681702L120.50769230769231,73.44993275403976L120.72307692307693,97.4691388209661L120.93846153846154,42.21336863438289L121.36923076923077,43.712995668252304L121.47692307692307,64.6995685696602L121.6923076923077,69.16937849919003L121.8,69.901637951533L121.9076923076923,62.42946755886079L122.0153846153846,85.28916758298874L122.23076923076923,60.91498257716498L122.66153846153847,54.576236228148154L122.87692307692308,67.35304566224417L122.9846153846154,51.01806543270748L123.3076923076923,89.3355113466581L123.73846153846154,26.09686177968979L124.06153846153846,84.46570905049643L124.38461538461537,56.573707083861045L124.49230769230769,34.66072501738867L124.92307692307693,103.10991328954697L125.13846153846154,42.5191727479299L125.24615384615385,44.34998255968094L125.46153846153847,80.0487957596779L125.67692307692307,74.86627322435379L125.78461538461538,84.96985357999803L126.1076923076923,52.32131552696228L126.64615384615385,51.30300394694011L126.86153846153847,64.08927909533185L126.96923076923078,74.5232509771983L127.18461538461538,49.91854798793793L127.29230769230769,47.02754886945088L127.72307692307692,70.29213529825212L128.15384615384616,49.233998080094665L128.36923076923077,94.59050667285919L128.58461538461538,77.18056710561116L128.69230769230768,55.02223841349285L128.8,62.931355555852264L129.01538461538462,113.27011209726334L129.12307692307692,49.237045864264175L129.44615384615383,61.04524604479473L129.55384615384614,78.7228631178538L129.66153846153844,76.75991427898407L129.87692307692308,87.88303705056508L130.41538461538462,85.40187698602678L130.63076923076923,80.96600296099982L130.84615384615384,73.37927691141765L130.95384615384614,78.88029289245605L131.06153846153845,30.278890550136566L131.6,56.168381094932556L132.03076923076924,67.26735603809357L132.24615384615385,66.44671084483464L132.35384615384615,78.99294368426006L133,91.8826676607132L133.1076923076923,27.11912961800893L133.2153846153846,62.03264019886653L133.3230769230769,73.75046185652417L133.43076923076922,75.89434357484183L133.86153846153846,53.83380772670111L134.0769230769231,46.079189797242485L134.1846153846154,80.68927001953125L134.83076923076922,70.46530218919119L134.93846153846152,77.4493875304858L135.26153846153846,44.82060146331788L135.47692307692307,70.84873688220978L135.58461538461538,55.97783597310385L135.69230769230768,105.77968430519104L135.9076923076923,47.793158113956466L136.23076923076923,63.26121958096822L136.33846153846153,105.55977495511374L136.44615384615386,96.48807468016943L136.66153846153847,42.70139507452648L136.76923076923077,58.562327643235534L136.87692307692308,65.49512815475464L136.98461538461538,87.41874816020331L137.09230769230768,102.96789826949438L137.2,73.76962773005168L137.52307692307693,94.9811798532804L137.63076923076923,59.999006211757674L137.84615384615387,115.90890707572304L137.95384615384617,82.24774273236592L138.06153846153848,74.12387402852377L138.3846153846154,54.89672245581946L138.4923076923077,94.78169651826225L138.6,77.2128032843272L139.03076923076924,96.38697030146918L139.7846153846154,88.79620007673901L140,66.09902900457384L140.2153846153846,74.40280489126842L140.32307692307694,72.85822304089864L140.43076923076922,80.37517241636913L140.75384615384615,99.61006067196529L140.9692307692308,78.91340823968251L141.1846153846154,85.82367273171742L141.29230769230767,81.449193974336L141.5076923076923,84.6845633983612L142.04615384615386,82.70877869923909L142.26153846153846,91.54134513934454L142.36923076923077,90.46307426691055L142.69230769230768,83.96446577707928L142.8,54.40104724963506L143.01538461538462,96.94603355725609L143.12307692307692,48.62552555402121L143.23076923076923,61.5662706096967L143.33846153846153,75.31262707710268L143.44615384615386,80.80883693695068L143.66153846153847,98.32793992757797L143.76923076923075,80.62614572048189L143.87692307692308,43.56919300556184L144.20000000000002,39.51572797695796L144.52307692307693,100.90047490596771L144.84615384615387,103.74956699212393L144.95384615384614,65.33248198032379L145.16923076923075,108.99685494105023L145.3846153846154,91.83894368012747L145.4923076923077,58.51781241099041L145.6,84.31305609146754L145.7076923076923,72.48677434523901L146.46153846153848,57.89070151249568L146.6769230769231,50.89445434014003L146.8923076923077,97.59216380119325L147.1076923076923,47.43278694152833L147.2153846153846,83.08022739489874L147.86153846153846,58.70964697996776L147.96923076923076,95.18590889374416L148.1846153846154,62.60644418001176L148.2923076923077,80.80693207184474L148.4,55.17656179269156L148.83076923076922,78.27466301123302L149.04615384615383,105.61756563186647L149.26153846153846,94.89757092793783L149.47692307692307,61.316117862860374L149.58461538461538,48.266502439975746L149.69230769230768,59.47179816166561L150.01538461538462,86.52419420083363L150.12307692307695,83.4716625213623L150.23076923076923,51.7204038500786L150.44615384615383,26.530203938484192L150.55384615384617,78.57492836316428L150.87692307692308,81.34284389019012L150.98461538461538,80.53934248288473L151.3076923076923,56.21125521262488L151.41538461538462,58.27100050449371L151.52307692307693,79.24769741296768L151.73846153846154,83.85638666152954L152.16923076923075,63.99684917926789L152.27692307692308,53.41060531139374L152.38461538461536,31.287033081054695L152.7076923076923,75.07448963324231L153.24615384615385,71.50468450784683L153.46153846153848,23.52274429798127L153.8923076923077,89.15185304482779L154.2153846153846,112.6835894783338L154.3230769230769,73.38528456290564L154.86153846153846,63.70259147882463L155.0769230769231,73.3864274819692L155.18461538461537,92.17575313647589L155.2923076923077,36.112466673056296L155.4,77.8271955450376L155.5076923076923,66.7417304913203L155.6153846153846,88.65342311064401L155.72307692307692,43.5681086977323L156.04615384615383,76.11565959453583L156.15384615384616,54.83957650264104L156.26153846153844,64.26147890090944L156.36923076923077,58.33221993843715L156.58461538461538,56.96748665968578L156.8,69.32461035251617L156.90769230769232,68.4790846904119L157.23076923076923,79.92134563128154L157.33846153846156,87.96022804578146L157.98461538461538,35.51876417795818L158.41538461538462,70.61124416192374L158.95384615384617,63.001395980517074L159.06153846153845,66.75310107072195L159.16923076923078,65.93031656742096L159.6,68.25020782152814L159.9230769230769,55.598855733871474L160.46153846153845,84.39534626404445L160.7846153846154,43.97592566410702L161.1076923076923,77.7101196050644L161.3230769230769,79.41775790850322L161.43076923076924,81.40652499596278L161.75384615384615,57.32173295815785L162.18461538461537,87.69723943869273L162.61538461538464,78.60150855779648L163.15384615384616,54.588515281677246L163.6923076923077,41.84074771404267L163.90769230769232,97.8660540978114L164.01538461538462,76.83086317777634L164.23076923076923,82.83713730176291L164.33846153846153,75.12709321578345L164.55384615384617,53.73147251208624L165.30769230769232,80.6996149023374L166.27692307692305,86.09346024195355L166.3846153846154,84.87335018316907L166.6,84.52417375644048L166.7076923076923,79.4142998456955L167.03076923076924,36.877929389476776L167.13846153846154,46.646019041538246L167.35384615384618,67.52316476901373L167.7846153846154,77.65695921579997L168,112.50757994254433L168.43076923076924,91.4712461034457L168.53846153846152,67.01125425100327L168.64615384615385,42.65060844024022L168.75384615384613,38.547675530115775L168.86153846153846,73.066146393617L169.2923076923077,72.47206292549771L169.4,54.874743243058525L169.6153846153846,84.82215327024461L169.72307692307692,78.00440661112468L170.15384615384613,73.60534044106802L170.6923076923077,78.95015748341879L170.79999999999998,77.84606836239497L171.23076923076925,79.96967059373857L171.55384615384614,78.91044837236406L171.98461538461538,102.57789911826454L172.63076923076923,77.4717477162679L174.0307692307692,87.65061420202257L174.13846153846154,67.592091580232L174.56923076923078,94.21516033013664L175.64615384615385,88.61306927601495L175.75384615384615,76.71701085567474L176.1846153846154,51.90201075871786L176.4,76.10903652509054L176.5076923076923,65.27058851718904L176.6153846153846,53.54939671357473L176.72307692307692,75.67349644502004L177.04615384615386,75.27200949192049L177.26153846153846,37.78461587429048L177.36923076923077,64.93668031692506L177.5846153846154,72.54462363322575L177.8,72.55262406667075L177.90769230769232,60.969520330429084L178.12307692307692,91.13390914599101L178.23076923076923,95.84003957112631L178.33846153846153,76.90351180235545L178.44615384615386,86.34774508078893L178.55384615384614,66.37851667404175L178.66153846153847,79.9512666662534L178.76923076923075,66.94349966446559L178.87692307692308,43.98427776495617L179.09230769230768,86.92990116278331L179.84615384615387,35.10558428366979L180.16923076923075,91.29151475429535L180.27692307692308,64.63090550899506L180.4923076923077,80.21170568466187L181.0307692307692,76.63369498650233L181.13846153846154,106.89625761906305L181.24615384615387,67.32669991254807L181.6769230769231,76.65180585781734L181.8923076923077,101.74705557028452L182,88.62142137686412L182.32307692307694,57.36481221516927L182.43076923076922,106.38197334607445L182.86153846153846,41.27652666966121L182.96923076923076,79.78132339318594L183.07692307692307,78.49281402428946L183.2923076923077,87.96213291088742L184.04615384615383,88.73966954151788L184.15384615384616,108.76472514867783L184.26153846153846,99.94153650601706L184.47692307692307,94.96998510758081L184.69230769230768,17.08195579051972L184.8,73.72180096308391L185.55384615384617,87.79063644011816L186.09230769230768,66.9912092089653L186.73846153846154,58.06952438751857L187.06153846153848,107.63156485557558L187.16923076923075,76.12023127079011L187.4923076923077,57.406455496946975L188.24615384615385,91.41647390524545L188.56923076923076,99.84057865540187L188.6769230769231,123.43558591604233L188.78461538461536,115.00664573907852L189.2153846153846,38.19926104942959L189.75384615384615,113.61125878492992L189.96923076923076,107.81803649663927L190.0769230769231,115.47547700007757L190.18461538461537,148.26386145750683L190.4,152.79880312085152L190.6153846153846,96.58179404338203L190.72307692307692,104.9420711596807L190.83076923076922,129.12149103482565L190.93846153846155,119.7964437007904L191.26153846153844,132.9013002117475L191.4769230769231,155.53543490171432L191.6923076923077,130.8752856850624L191.8,89.80733178059259L191.90769230769232,105.82780412832895L192.23076923076923,105.46696406602861L192.76923076923077,132.9207884470622L193.3076923076923,99.80555844306947L193.41538461538462,138.4047485589981L193.5230769230769,141.34288576245308L193.95384615384617,104.86039640506111L194.06153846153845,116.66349740823112L194.16923076923078,133.58253858486813L194.9230769230769,131.703315893809L195.03076923076924,141.10803054769835L195.24615384615385,119.29531764984131L195.35384615384615,110.11084936062494L195.56923076923078,138.8859028319518L196.21538461538464,131.47101026773453L196.43076923076924,115.54340742031735L196.64615384615385,134.1554927031199L196.75384615384615,101.63847825924557L197.18461538461537,119.55350013573965L197.61538461538464,101.14939681688944L197.72307692307692,118.55974666277568L197.83076923076925,117.4923481742541L198.15384615384616,120.47498595714569L198.26153846153846,126.58163181940716L198.79999999999998,126.67397381862006L198.90769230769232,127.73099811871849L199.12307692307692,138.71669219930968L199.33846153846153,125.32931488752365L199.44615384615383,113.39319568872453L199.55384615384617,137.317114541928L199.66153846153844,125.32887530326843L199.87692307692305,127.83575104673704L200.0923076923077,141.34767723083496L200.52307692307693,133.43637682000795L200.73846153846154,123.85899347066879L200.95384615384617,142.1946828265985L201.27692307692305,157.50874327619871L201.3846153846154,123.11243287722269L201.8153846153846,153.4131514231364L202.13846153846154,136.95218634605408L202.35384615384618,147.38683225711188L202.46153846153845,135.37996929883957L202.67692307692306,117.81054856379829L203,128.93096056580544L203.1076923076923,101.54686890045801L203.2153846153846,135.27241768439612L203.3230769230769,126.97374097506204L203.86153846153846,141.17701597015065L203.9692307692308,110.70572408040366L204.07692307692307,151.44630493720373L204.2923076923077,128.4709942539533L204.5076923076923,125.32506557305656L204.6153846153846,166.37023436029753L204.83076923076925,145.5296180844307L205.04615384615386,129.2962111234665L205.36923076923077,146.84338889519375L205.58461538461538,161.88961065808934L205.6923076923077,93.47334724664688L205.79999999999998,134.37039079268774L205.90769230769232,133.95082227389017L206.55384615384614,121.94817932446799L206.66153846153847,136.57596083482107L206.98461538461538,126.31676765282951L207.09230769230768,135.0945179363092L207.2,151.40334290266037L207.30769230769232,145.1918122371038L207.84615384615387,125.42851440111798L208.70769230769233,133.91196302572888L208.8153846153846,122.47321875890097L209.24615384615385,142.0268642107646L209.46153846153845,134.25428193807602L209.7846153846154,136.65546697378159L209.89230769230767,160.58357653021812L210,106.10743832588196L210.10769230769233,130.53214621543884L210.32307692307694,137.04955425858498L210.43076923076922,140.68576591213545L210.75384615384615,143.81304156780243L211.29230769230767,115.9674303929011L211.4,132.66259130835533L211.6153846153846,171.21244541803995L211.93846153846152,138.97988594571748L212.69230769230768,164.96649530529976L212.8,148.7648995916049L212.90769230769232,125.36577107508978L213.23076923076923,112.18621454636256L213.66153846153847,118.77669614553452L213.76923076923075,166.23611720403036L213.87692307692308,134.19877709945044L214.20000000000002,143.40507807334265L214.3076923076923,155.92131661375365L214.52307692307693,133.5269604822L214.73846153846154,157.3069887558619L214.95384615384614,112.94276835521065L215.3846153846154,125.27624241511026L215.6,155.4329678118229L215.7076923076923,152.7210992773374L215.8153846153846,114.53473738829294L216.24615384615387,147.3705969452858L216.46153846153848,127.26714881261191L216.8923076923077,132.126796712478L217.1076923076923,130.34211394190788L217.32307692307694,101.99896665414177L217.43076923076922,153.7686578631401L217.86153846153846,134.9448981086413L218.1846153846154,107.46053727467856L218.2923076923077,154.12655271093053L218.5076923076923,155.9395300547282L218.6153846153846,137.73719590902328L218.83076923076922,112.61768114566803L218.93846153846155,150.70975221196812L219.04615384615383,160.0226377149423L219.26153846153846,146.38837523261708L219.36923076923077,111.24236853917442L219.47692307692307,185.77399623394012L220.12307692307695,145.60233997305235L220.23076923076923,119.57131795088449L220.33846153846156,154.88265228271484L220.44615384615383,114.4742799003919L220.55384615384617,139.19342132409415L220.87692307692308,137.07801001270613L221.09230769230768,149.6139126221339L221.84615384615384,134.06567098697028L222.27692307692308,114.82427688439688L222.38461538461536,155.9275000989437L222.4923076923077,139.68393874168396L222.60000000000002,127.87916731834413L223.03076923076924,139.34510719776154L223.13846153846154,139.77125482757887L223.24615384615385,151.0983739991983L223.35384615384615,190.96089995900792L223.46153846153848,146.57843681176504L223.6769230769231,151.9926202495893L224,146.9949868520101L224.3230769230769,136.72282593448958L224.43076923076922,142.40136069059372L224.64615384615385,155.09075146913528L224.86153846153846,139.35675618052483L225.0769230769231,110.80049844582877L225.6153846153846,146.79604567090672L226.04615384615383,162.13716985781988L226.36923076923077,144.3418760796388L226.8,106.45626308520636L227.01538461538462,132.23899326721826L227.12307692307692,147.57894522945088L227.23076923076923,131.38656613230705L227.55384615384617,137.13873125116032L227.87692307692308,163.2123050292333L228.09230769230768,144.09524000684422L228.73846153846156,155.71175214648247L228.84615384615384,140.33333656191826L228.95384615384617,147.46585485339165L229.27692307692308,165.14527422189713L229.6,173.2155869106452L229.9230769230769,153.20889127254486L230.03076923076924,166.0975895524025L230.35384615384615,163.34034126996994L230.46153846153845,133.60891364018124L230.56923076923078,157.4356843729814L230.6769230769231,149.19613174597424L231,163.62979284922284L231.21538461538464,153.9532979031404L231.53846153846152,152.1039083302021L231.64615384615385,133.4129176735878L231.86153846153846,156.41003173589706L232.18461538461537,151.49748719731969L232.61538461538464,173.02641915281615L232.72307692307692,160.55321591099104L232.83076923076925,151.86978575587273L232.93846153846152,176.26956921815875L233.04615384615386,124.9093653957049L233.26153846153846,138.10007271170616L233.36923076923077,181.35193980733555L233.47692307692307,153.09517082571983L233.58461538461538,155.9526296655337L234.23076923076923,125.83559872706732L234.44615384615383,141.9699820081393L234.66153846153844,180.667844136556L234.76923076923077,153.2381675839424L234.87692307692305,155.8252528011799L234.98461538461538,177.58295905590057L235.0923076923077,135.17735026280087L235.30769230769232,166.817819048961L235.52307692307693,151.7178654372692L235.63076923076923,137.93002686897913L235.95384615384617,164.37579663594565L236.06153846153845,162.52212844292322L236.3846153846154,138.7358287672202L237.13846153846154,135.31038311123848L238.64615384615385,147.57419771949452L238.75384615384613,174.2247258325418L239.1846153846154,140.02307799458504L239.2923076923077,156.9142495294412L239.4,154.99890766541162L239.6153846153846,153.85943201184273L239.72307692307692,144.41462727387747L239.93846153846152,164.49051347374916L240.26153846153846,155.72008959452313L240.36923076923077,124.23155577977501L240.58461538461538,173.50477473934492L240.6923076923077,146.34229214986166L240.79999999999998,166.6868815521399L241.23076923076925,175.7418190141519L241.33846153846153,149.41492748260498L241.55384615384614,141.41856751839322L241.66153846153847,149.5495135287444L241.98461538461538,160.18852216005325L242.09230769230768,107.18579711516699L242.2,162.82328761617345L242.73846153846154,150.66574982802075L242.84615384615387,148.63857772946358L242.95384615384614,154.8125385940075L243.06153846153848,136.38356945912045L244.13846153846154,138.17141723632812L244.24615384615385,162.97645342350006L244.46153846153845,129.49946023027104L244.89230769230767,157.10167360305786L245.32307692307694,169.5262002150218L245.43076923076922,124.95323590437573L245.9692307692308,176.6334131062031L246.1846153846154,179.73437231779099L246.29230769230767,151.07702485720318L246.5076923076923,125.4977635741234L246.6153846153846,169.50460197528204L246.72307692307692,143.3993341724078L247.15384615384613,181.55438300967216L247.26153846153846,145.27698901295662L247.36923076923077,142.76693361004195L247.47692307692307,161.61468001206717L247.69230769230768,167.91125557820004L247.8,160.3296287059784L248.01538461538462,150.06019321084023L248.12307692307692,145.520152370135L248.23076923076923,172.2952879667282L248.33846153846153,185.570527335008L248.66153846153847,148.8528750538826L248.76923076923075,145.72885232170424L249.20000000000002,138.89070895314217L249.3076923076923,150.90198240677518L249.73846153846154,159.68974055846533L249.84615384615387,140.00804421305656L250.06153846153848,150.07250156998634L250.16923076923075,177.24065479636195L250.27692307692308,142.8863539993763L250.4923076923077,179.4342388411363L250.6,171.91980974872908L251.0307692307692,165.7261994679769L251.35384615384615,144.03429897626242L251.46153846153848,163.1463087797165L251.56923076923076,167.57361091176668L251.8923076923077,171.0173432727655L252.32307692307694,152.91070661942166L252.96923076923076,152.30175055066746L253.07692307692307,185.7095238765081L253.5076923076923,182.62479997674626L253.6153846153846,157.1126192510128L254.04615384615383,125.32415709892909L254.15384615384616,168.9147092103958L254.26153846153846,174.76578078667325L254.36923076923077,159.70749976237616L255.12307692307695,128.6777453819911L255.55384615384617,167.3217584391435L255.76923076923077,131.5795582731565L255.87692307692308,163.16109346350035L256.6307692307692,169.5485897064209L256.8461538461538,154.91336456934613L257.0615384615385,170.40217441320422L257.2769230769231,162.9378432730834L257.81538461538463,147.5781832834085L258.3538461538462,150.0842677752177L258.5692307692308,167.98334739605585L258.67692307692306,129.10925593972206L258.7846153846154,166.98411377271017L259.1076923076923,140.8365433116754L259.4307692307692,157.4326512416204L259.6461538461538,157.65446545680365L259.75384615384615,150.6978394786517L259.96923076923076,152.82846040527028L260.0769230769231,168.2872173388799L260.18461538461537,159.3416484395663L260.7230769230769,163.6203124821186L260.83076923076925,149.47682094573975L260.9384615384615,173.71007523934048L261.15384615384613,160.5227820277214L261.36923076923074,170.81025513013205L262.0153846153846,164.3034557203452L262.33846153846156,157.68350732326508L262.66153846153844,151.82088933388394L262.9846153846154,130.21250985066098L263.2,158.460912078619L263.5230769230769,176.14135714372L264.2769230769231,147.50875827670097L264.59999999999997,155.98912981152534L264.7076923076923,140.43827997644743L264.9230769230769,161.26661719878516" style="fill: none;" fill="none"></path></g></g></g></g></g></g><g transform="translate(50, 177)" clip-path="url(#clip_1)"><clipPath id="clip_1"><rect width="280" height="23"></rect></clipPath><g><g><line x1="0" y1="0" x2="0" y2="5" style="visibility: inherit;" fill="rgb(0, 0, 0)" stroke="rgb(204, 204, 204)" stroke-width="1px"></line><line x1="21.53846153846154" y1="0" x2="21.53846153846154" y2="5" style="visibility: inherit;" fill="rgb(0, 0, 0)" stroke="rgb(204, 204, 204)" stroke-width="1px"></line><line x1="43.07692307692308" y1="0" x2="43.07692307692308" y2="5" style="visibility: inherit;" fill="rgb(0, 0, 0)" stroke="rgb(204, 204, 204)" stroke-width="1px"></line><line x1="64.61538461538461" y1="0" x2="64.61538461538461" y2="5" style="visibility: inherit;" fill="rgb(0, 0, 0)" stroke="rgb(204, 204, 204)" stroke-width="1px"></line><line x1="86.15384615384616" y1="0" x2="86.15384615384616" y2="5" style="visibility: inherit;" fill="rgb(0, 0, 0)" stroke="rgb(204, 204, 204)" stroke-width="1px"></line><line x1="107.6923076923077" y1="0" x2="107.6923076923077" y2="5" style="visibility: inherit;" fill="rgb(0, 0, 0)" stroke="rgb(204, 204, 204)" stroke-width="1px"></line><line x1="129.23076923076923" y1="0" x2="129.23076923076923" y2="5" style="visibility: inherit;" fill="rgb(0, 0, 0)" stroke="rgb(204, 204, 204)" stroke-width="1px"></line><line x1="150.76923076923077" y1="0" x2="150.76923076923077" y2="5" style="visibility: inherit;" fill="rgb(0, 0, 0)" stroke="rgb(204, 204, 204)" stroke-width="1px"></line><line x1="172.30769230769232" y1="0" x2="172.30769230769232" y2="5" style="visibility: inherit;" fill="rgb(0, 0, 0)" stroke="rgb(204, 204, 204)" stroke-width="1px"></line><line x1="193.84615384615384" y1="0" x2="193.84615384615384" y2="5" style="visibility: inherit;" fill="rgb(0, 0, 0)" stroke="rgb(204, 204, 204)" stroke-width="1px"></line><line x1="215.3846153846154" y1="0" x2="215.3846153846154" y2="5" style="visibility: inherit;" fill="rgb(0, 0, 0)" stroke="rgb(204, 204, 204)" stroke-width="1px"></line><line x1="236.92307692307693" y1="0" x2="236.92307692307693" y2="5" style="visibility: inherit;" fill="rgb(0, 0, 0)" stroke="rgb(204, 204, 204)" stroke-width="1px"></line><line x1="258.46153846153845" y1="0" x2="258.46153846153845" y2="5" style="visibility: inherit;" fill="rgb(0, 0, 0)" stroke="rgb(204, 204, 204)" stroke-width="1px"></line><line x1="280" y1="0" x2="280" y2="5" style="visibility: inherit;" fill="rgb(0, 0, 0)" stroke="rgb(204, 204, 204)" stroke-width="1px"></line></g><g transform="translate(0, 8)"><text x="0" y="0" dx="0em" dy="0.95em" style="text-anchor: middle; visibility: hidden; font-family: Roboto, sans-serif; font-size: 12px; font-weight: 200;" fill="rgb(33, 33, 33)" stroke="none" stroke-width="1px">-2k</text><text x="21.53846153846154" y="0" dx="0em" dy="0.95em" style="text-anchor: middle; visibility: inherit; font-family: Roboto, sans-serif; font-size: 12px; font-weight: 200;" fill="rgb(33, 33, 33)" stroke="none" stroke-width="1px">0</text><text x="43.07692307692308" y="0" dx="0em" dy="0.95em" style="text-anchor: middle; visibility: hidden; font-family: Roboto, sans-serif; font-size: 12px; font-weight: 200;" fill="rgb(33, 33, 33)" stroke="none" stroke-width="1px">2k</text><text x="64.61538461538461" y="0" dx="0em" dy="0.95em" style="text-anchor: middle; visibility: inherit; font-family: Roboto, sans-serif; font-size: 12px; font-weight: 200;" fill="rgb(33, 33, 33)" stroke="none" stroke-width="1px">4k</text><text x="86.15384615384616" y="0" dx="0em" dy="0.95em" style="text-anchor: middle; visibility: hidden; font-family: Roboto, sans-serif; font-size: 12px; font-weight: 200;" fill="rgb(33, 33, 33)" stroke="none" stroke-width="1px">6k</text><text x="107.6923076923077" y="0" dx="0em" dy="0.95em" style="text-anchor: middle; visibility: inherit; font-family: Roboto, sans-serif; font-size: 12px; font-weight: 200;" fill="rgb(33, 33, 33)" stroke="none" stroke-width="1px">8k</text><text x="129.23076923076923" y="0" dx="0em" dy="0.95em" style="text-anchor: middle; visibility: hidden; font-family: Roboto, sans-serif; font-size: 12px; font-weight: 200;" fill="rgb(33, 33, 33)" stroke="none" stroke-width="1px">10k</text><text x="150.76923076923077" y="0" dx="0em" dy="0.95em" style="text-anchor: middle; visibility: inherit; font-family: Roboto, sans-serif; font-size: 12px; font-weight: 200;" fill="rgb(33, 33, 33)" stroke="none" stroke-width="1px">12k</text><text x="172.30769230769232" y="0" dx="0em" dy="0.95em" style="text-anchor: middle; visibility: hidden; font-family: Roboto, sans-serif; font-size: 12px; font-weight: 200;" fill="rgb(33, 33, 33)" stroke="none" stroke-width="1px">14k</text><text x="193.84615384615384" y="0" dx="0em" dy="0.95em" style="text-anchor: middle; visibility: inherit; font-family: Roboto, sans-serif; font-size: 12px; font-weight: 200;" fill="rgb(33, 33, 33)" stroke="none" stroke-width="1px">16k</text><text x="215.3846153846154" y="0" dx="0em" dy="0.95em" style="text-anchor: middle; visibility: hidden; font-family: Roboto, sans-serif; font-size: 12px; font-weight: 200;" fill="rgb(33, 33, 33)" stroke="none" stroke-width="1px">18k</text><text x="236.92307692307693" y="0" dx="0em" dy="0.95em" style="text-anchor: middle; visibility: inherit; font-family: Roboto, sans-serif; font-size: 12px; font-weight: 200;" fill="rgb(33, 33, 33)" stroke="none" stroke-width="1px">20k</text><text x="258.46153846153845" y="0" dx="0em" dy="0.95em" style="text-anchor: middle; visibility: hidden; font-family: Roboto, sans-serif; font-size: 12px; font-weight: 200;" fill="rgb(33, 33, 33)" stroke="none" stroke-width="1px">22k</text><text x="280" y="0" dx="0em" dy="0.95em" style="text-anchor: middle; visibility: hidden; font-family: Roboto, sans-serif; font-size: 12px; font-weight: 200;" fill="rgb(33, 33, 33)" stroke="none" stroke-width="1px">24k</text></g><line x1="0" y1="0" x2="280" y2="0" fill="rgb(0, 0, 0)" stroke="rgb(204, 204, 204)" stroke-width="1px"></line></g></g></g></g></svg>